<svg xmlns="http://www.w3.org/2000/svg" width="64" height="64" fill="none" viewBox="0 0 64 64">
    <g><path style="opacity:1" fill="#222328" d="M -0.5,-0.5 C 9.5,-0.5 19.5,-0.5 29.5,-0.5C 31.641,0.811787 33.3076,2.64512 34.5,5C 36.5767,5.19221 38.5767,5.69221 40.5,6.5C 48.5853,10.8725 56.5853,15.2059 64.5,19.5C 67.5,20.1667 70.5,20.8333 73.5,21.5C 76.0856,23.8982 79.0856,25.5649 82.5,26.5C 89.6788,28.1683 96.8455,29.8349 104,31.5C 105.226,31.3552 106.393,31.0219 107.5,30.5C 107.931,32.7401 107.931,34.7401 107.5,36.5C 95.7235,39.7499 85.0568,45.0833 75.5,52.5C 75.1961,51.8501 74.8627,51.1835 74.5,50.5C 75.629,48.7249 76.629,47.0582 77.5,45.5C 73.4788,43.1619 69.1455,42.1619 64.5,42.5C 64.5,41.1667 64.5,39.8333 64.5,38.5C 59.5082,38.0008 54.5082,37.5008 49.5,37C 46.2003,34.7337 42.5336,33.567 38.5,33.5C 38.5,32.1667 38.5,30.8333 38.5,29.5C 35.5,28.1667 32.5,26.8333 29.5,25.5C 29.5,23.8333 29.5,22.1667 29.5,20.5C 27.8008,20.3398 26.1341,20.5065 24.5,21C 25.3363,22.2433 25.003,23.4099 23.5,24.5C 21.8681,21.8545 19.5348,20.5211 16.5,20.5C 17.2436,17.0504 15.9103,15.3838 12.5,15.5C 12.67,14.1779 12.3366,13.0113 11.5,12C 8.85397,11.5026 6.1873,11.3359 3.5,11.5C 3.5,10.1667 3.5,8.83333 3.5,7.5C 2.16667,7.5 0.833333,7.5 -0.5,7.5C -0.5,4.83333 -0.5,2.16667 -0.5,-0.5 Z"/></g>
<g><path style="opacity:1" fill="#28292e" d="M 29.5,-0.5 C 43.5,-0.5 57.5,-0.5 71.5,-0.5C 71.4142,0.495904 71.7476,1.32924 72.5,2C 74.7949,3.50183 77.1282,3.66849 79.5,2.5C 82.7106,3.40373 85.8772,4.40373 89,5.5C 92.5865,4.03143 95.4198,5.03143 97.5,8.5C 104.976,9.54075 112.309,11.2074 119.5,13.5C 125.112,13.812 130.779,13.9787 136.5,14C 134.182,15.1021 133.515,16.6021 134.5,18.5C 134.832,38.2433 134.499,57.2433 133.5,75.5C 133.667,62.8289 133.5,50.1623 133,37.5C 132.667,37.8333 132.333,38.1667 132,38.5C 131.901,36.3474 131.067,34.6808 129.5,33.5C 122.149,32.9414 114.816,33.9414 107.5,36.5C 107.931,34.7401 107.931,32.7401 107.5,30.5C 106.393,31.0219 105.226,31.3552 104,31.5C 96.8455,29.8349 89.6788,28.1683 82.5,26.5C 79.0856,25.5649 76.0856,23.8982 73.5,21.5C 70.5,20.8333 67.5,20.1667 64.5,19.5C 56.5853,15.2059 48.5853,10.8725 40.5,6.5C 38.5767,5.69221 36.5767,5.19221 34.5,5C 33.3076,2.64512 31.641,0.811787 29.5,-0.5 Z"/></g>
<g><path style="opacity:1" fill="#2d2e32" d="M 71.5,-0.5 C 121.833,-0.5 172.167,-0.5 222.5,-0.5C 217.492,-0.135051 212.492,1.03162 207.5,3C 206.023,5.57123 204.023,6.07123 201.5,4.5C 195.872,8.45519 189.538,10.4552 182.5,10.5C 179.172,11.8303 175.838,13.1636 172.5,14.5C 171.808,15.0253 171.308,15.6919 171,16.5C 169.989,15.6634 168.822,15.33 167.5,15.5C 167.719,16.675 167.386,17.675 166.5,18.5C 165.146,16.8164 163.479,16.3164 161.5,17C 161.833,17.3333 162.167,17.6667 162.5,18C 160.109,18.2868 157.776,18.7868 155.5,19.5C 154.614,18.675 154.281,17.675 154.5,16.5C 150.768,15.9229 147.102,15.9229 143.5,16.5C 142.167,15.8333 140.833,15.1667 139.5,14.5C 138.287,14.7472 137.62,15.4138 137.5,16.5C 136.222,16.7822 135.222,17.4489 134.5,18.5C 133.515,16.6021 134.182,15.1021 136.5,14C 130.779,13.9787 125.112,13.812 119.5,13.5C 112.309,11.2074 104.976,9.54075 97.5,8.5C 95.4198,5.03143 92.5865,4.03143 89,5.5C 85.8772,4.40373 82.7106,3.40373 79.5,2.5C 77.1282,3.66849 74.7949,3.50183 72.5,2C 71.7476,1.32924 71.4142,0.495904 71.5,-0.5 Z"/></g>
<g><path style="opacity:1" fill="#27292e" d="M 222.5,-0.5 C 231.833,-0.5 241.167,-0.5 250.5,-0.5C 247.581,4.28326 243.248,6.94993 237.5,7.5C 237.5,8.83333 237.5,10.1667 237.5,11.5C 234.428,11.1826 231.428,11.5159 228.5,12.5C 225.831,15.947 222.498,16.947 218.5,15.5C 217.614,16.325 217.281,17.325 217.5,18.5C 212.751,20.7038 207.751,22.0371 202.5,22.5C 202.5,24.1667 202.5,25.8333 202.5,27.5C 200.139,27.3259 197.806,26.9926 195.5,26.5C 195.5,27.5 195.5,28.5 195.5,29.5C 193.508,29.3285 191.842,29.9951 190.5,31.5C 189.106,29.016 187.606,29.016 186,31.5C 183.702,30.3729 181.535,30.7063 179.5,32.5C 174.784,32.4877 170.118,31.8211 165.5,30.5C 165.608,32.5138 164.942,34.1805 163.5,35.5C 157.253,34.1085 150.919,33.4419 144.5,33.5C 144.5,34.5 144.5,35.5 144.5,36.5C 143.694,35.1325 142.694,33.7992 141.5,32.5C 143.149,28.028 142.482,24.028 139.5,20.5C 139.5,19.8333 139.167,19.5 138.5,19.5C 137.89,18.609 137.557,17.609 137.5,16.5C 137.62,15.4138 138.287,14.7472 139.5,14.5C 140.833,15.1667 142.167,15.8333 143.5,16.5C 147.102,15.9229 150.768,15.9229 154.5,16.5C 154.281,17.675 154.614,18.675 155.5,19.5C 157.776,18.7868 160.109,18.2868 162.5,18C 162.167,17.6667 161.833,17.3333 161.5,17C 163.479,16.3164 165.146,16.8164 166.5,18.5C 167.386,17.675 167.719,16.675 167.5,15.5C 168.822,15.33 169.989,15.6634 171,16.5C 171.308,15.6919 171.808,15.0253 172.5,14.5C 175.838,13.1636 179.172,11.8303 182.5,10.5C 189.538,10.4552 195.872,8.45519 201.5,4.5C 204.023,6.07123 206.023,5.57123 207.5,3C 212.492,1.03162 217.492,-0.135051 222.5,-0.5 Z"/></g>
<g><path style="opacity:1" fill="#222328" d="M 250.5,-0.5 C 257.167,-0.5 263.833,-0.5 270.5,-0.5C 270.5,4.83333 270.5,10.1667 270.5,15.5C 268.856,15.2865 267.356,15.6198 266,16.5C 264.86,19.1019 264.027,21.7686 263.5,24.5C 261.5,24.5 259.5,24.5 257.5,24.5C 257.714,26.1439 257.38,27.6439 256.5,29C 250.715,30.3367 245.048,31.8367 239.5,33.5C 239.5,34.8333 239.5,36.1667 239.5,37.5C 233.71,37.2079 228.043,37.8746 222.5,39.5C 221.833,40.8333 221.167,42.1667 220.5,43.5C 212.737,46.0186 204.904,46.6853 197,45.5C 196.59,46.9007 196.09,48.234 195.5,49.5C 185.571,43.2033 174.904,38.5367 163.5,35.5C 164.942,34.1805 165.608,32.5138 165.5,30.5C 170.118,31.8211 174.784,32.4877 179.5,32.5C 181.535,30.7063 183.702,30.3729 186,31.5C 187.606,29.016 189.106,29.016 190.5,31.5C 191.842,29.9951 193.508,29.3285 195.5,29.5C 195.5,28.5 195.5,27.5 195.5,26.5C 197.806,26.9926 200.139,27.3259 202.5,27.5C 202.5,25.8333 202.5,24.1667 202.5,22.5C 207.751,22.0371 212.751,20.7038 217.5,18.5C 217.281,17.325 217.614,16.325 218.5,15.5C 222.498,16.947 225.831,15.947 228.5,12.5C 231.428,11.5159 234.428,11.1826 237.5,11.5C 237.5,10.1667 237.5,8.83333 237.5,7.5C 243.248,6.94993 247.581,4.28326 250.5,-0.5 Z"/></g>
<g><path style="opacity:1" fill="#1b1e23" d="M -0.5,7.5 C 0.833333,7.5 2.16667,7.5 3.5,7.5C 3.5,8.83333 3.5,10.1667 3.5,11.5C 6.1873,11.3359 8.85397,11.5026 11.5,12C 12.3366,13.0113 12.67,14.1779 12.5,15.5C 15.9103,15.3838 17.2436,17.0504 16.5,20.5C 19.5348,20.5211 21.8681,21.8545 23.5,24.5C 25.003,23.4099 25.3363,22.2433 24.5,21C 26.1341,20.5065 27.8008,20.3398 29.5,20.5C 29.5,22.1667 29.5,23.8333 29.5,25.5C 32.5,26.8333 35.5,28.1667 38.5,29.5C 38.5,30.8333 38.5,32.1667 38.5,33.5C 42.5336,33.567 46.2003,34.7337 49.5,37C 54.5082,37.5008 59.5082,38.0008 64.5,38.5C 64.5,39.8333 64.5,41.1667 64.5,42.5C 69.1455,42.1619 73.4788,43.1619 77.5,45.5C 76.629,47.0582 75.629,48.7249 74.5,50.5C 74.8627,51.1835 75.1961,51.8501 75.5,52.5C 69.5365,57.1281 63.8698,62.1281 58.5,67.5C 57.3948,65.7 58.0614,64.5334 60.5,64C 58.728,62.5132 56.728,62.1799 54.5,63C 55.6956,63.6543 55.6956,64.1543 54.5,64.5C 50.5039,62.925 46.5039,61.2583 42.5,59.5C 41.1468,58.4763 40.4802,57.143 40.5,55.5C 36.774,55.8226 33.1073,55.4892 29.5,54.5C 24.6931,52.0946 19.6931,50.2613 14.5,49C 9.87816,44.8649 4.87816,41.3649 -0.5,38.5C -0.5,28.1667 -0.5,17.8333 -0.5,7.5 Z"/></g>
<g><path style="opacity:1" fill="#f7f8f8" d="M 137.5,16.5 C 137.557,17.609 137.89,18.609 138.5,19.5C 138.167,38.1786 138.5,56.8452 139.5,75.5C 140.107,75.3764 140.44,75.0431 140.5,74.5C 142.456,72.8861 144.456,71.2194 146.5,69.5C 155.452,75.7838 164.118,82.4504 172.5,89.5C 173.499,100.814 173.832,112.147 173.5,123.5C 168.175,128.821 162.509,133.821 156.5,138.5C 161.535,143.7 167.035,148.367 173,152.5C 173.667,164.5 173.667,176.5 173,188.5C 171.624,189.705 170.458,191.038 169.5,192.5C 164.833,196.167 160.167,199.833 155.5,203.5C 155.667,188.496 155.5,173.496 155,158.5C 150.268,154.258 145.435,150.258 140.5,146.5C 140.44,145.957 140.107,145.624 139.5,145.5C 138.501,159.484 138.167,173.484 138.5,187.5C 137.041,187.433 135.708,187.766 134.5,188.5C 134.667,173.163 134.5,157.83 134,142.5C 129.833,139 125.667,135.5 121.5,132C 125.648,128.686 129.648,125.186 133.5,121.5C 134.666,108.513 134.833,95.5128 134,82.5C 128.624,78.6248 124.124,73.9582 120.5,68.5C 120.435,68.0618 120.601,67.7284 121,67.5C 124.63,71.0615 128.797,73.7281 133.5,75.5C 134.499,57.2433 134.832,38.2433 134.5,18.5C 135.222,17.4489 136.222,16.7822 137.5,16.5 Z"/></g>
<g><path style="opacity:1" fill="#1b1d23" d="M 270.5,15.5 C 270.5,33.5 270.5,51.5 270.5,69.5C 268.598,68.4891 266.598,68.3224 264.5,69C 262.909,71.7557 260.576,73.589 257.5,74.5C 251.606,76.299 245.606,77.6323 239.5,78.5C 235.359,79.4223 231.692,81.089 228.5,83.5C 219.542,70.2086 208.542,58.8752 195.5,49.5C 196.09,48.234 196.59,46.9007 197,45.5C 204.904,46.6853 212.737,46.0186 220.5,43.5C 221.167,42.1667 221.833,40.8333 222.5,39.5C 228.043,37.8746 233.71,37.2079 239.5,37.5C 239.5,36.1667 239.5,34.8333 239.5,33.5C 245.048,31.8367 250.715,30.3367 256.5,29C 257.38,27.6439 257.714,26.1439 257.5,24.5C 259.5,24.5 261.5,24.5 263.5,24.5C 264.027,21.7686 264.86,19.1019 266,16.5C 267.356,15.6198 268.856,15.2865 270.5,15.5 Z"/></g>
<g><path style="opacity:1" fill="#ecedee" d="M 129.5,33.5 C 129.5,34.8333 129.5,36.1667 129.5,37.5C 95.0479,40.7091 69.0479,57.0424 51.5,86.5C 47.3183,94.2153 43.8183,102.215 41,110.5C 39.1406,109.355 38.3073,107.688 38.5,105.5C 39.8877,100.395 41.5544,95.3948 43.5,90.5C 48.0728,82.5862 53.0728,74.9195 58.5,67.5C 63.8698,62.1281 69.5365,57.1281 75.5,52.5C 85.0568,45.0833 95.7235,39.7499 107.5,36.5C 114.816,33.9414 122.149,32.9414 129.5,33.5 Z"/></g>
<g><path style="opacity:1" fill="#eeeff0" d="M 163.5,35.5 C 174.904,38.5367 185.571,43.2033 195.5,49.5C 208.542,58.8752 219.542,70.2086 228.5,83.5C 231.983,90.7769 234.983,98.2769 237.5,106C 236.683,107.49 235.85,108.99 235,110.5C 234.31,111.738 233.81,111.738 233.5,110.5C 224.804,78.6116 205.137,56.4449 174.5,44C 164.51,40.9085 154.51,38.4085 144.5,36.5C 144.5,35.5 144.5,34.5 144.5,33.5C 150.919,33.4419 157.253,34.1085 163.5,35.5 Z"/></g>
<g><path style="opacity:1" fill="#a8a9ac" d="M 138.5,19.5 C 139.167,19.5 139.5,19.8333 139.5,20.5C 139.5,29.8333 139.5,39.1667 139.5,48.5C 139.174,57.3494 139.507,66.0161 140.5,74.5C 140.44,75.0431 140.107,75.3764 139.5,75.5C 138.5,56.8452 138.167,38.1786 138.5,19.5 Z"/></g>
<g><path style="opacity:1" fill="#ecedee" d="M 43.5,126.5 C 43.7006,119.996 44.8673,113.663 47,107.5C 49.5701,100.696 52.4035,94.0296 55.5,87.5C 72.6079,60.2708 97.2746,45.2708 129.5,42.5C 129.5,43.8333 129.5,45.1667 129.5,46.5C 88.3311,51.3458 61.8311,73.6792 50,113.5C 49.0775,117.79 48.5775,122.123 48.5,126.5C 46.8333,126.5 45.1667,126.5 43.5,126.5 Z"/></g>
<g><path style="opacity:1" fill="#eeeff0" d="M 229.5,109.5 C 230.71,115.096 231.377,120.762 231.5,126.5C 230.167,126.5 228.833,126.5 227.5,126.5C 221.218,84.7138 197.552,58.5471 156.5,48C 152.49,47.4987 148.49,46.9987 144.5,46.5C 144.5,45.1667 144.5,43.8333 144.5,42.5C 186.702,47.3815 215.036,69.7148 229.5,109.5 Z"/></g>
<g><path style="opacity:1" fill="#edeeef" d="M 92.5,68.5 C 76.8908,78.8586 66.2242,93.0253 60.5,111C 60.7591,112.261 61.4258,113.261 62.5,114C 72.997,121.083 83.6637,127.916 94.5,134.5C 81.864,142.637 69.364,150.971 57,159.5C 55.1604,154.126 53.6604,148.793 52.5,143.5C 52.5,141.167 52.5,138.833 52.5,136.5C 44.7777,136.767 37.111,136.434 29.5,135.5C 26.9608,134.093 27.2942,132.927 30.5,132C 37.4921,131.5 44.4921,131.334 51.5,131.5C 55.7315,91.4314 77.0648,65.2647 115.5,53C 120.102,51.8776 124.768,51.3776 129.5,51.5C 129.5,52.8333 129.5,54.1667 129.5,55.5C 115.88,56.4828 103.546,60.8161 92.5,68.5 Z"/></g>
<g><path style="opacity:1" fill="#eceeee" d="M 209.5,99.5 C 209.5,99.1667 209.5,98.8333 209.5,98.5C 198.502,78.1768 181.835,64.8435 159.5,58.5C 154.684,57.1934 149.684,56.1934 144.5,55.5C 144.5,54.1667 144.5,52.8333 144.5,51.5C 177.371,54.8376 201.204,71.171 216,100.5C 216.977,103.259 216.144,105.259 213.5,106.5C 212.396,103.95 211.063,101.617 209.5,99.5 Z"/></g>
<g><path style="opacity:1" fill="#212329" d="M 129.5,33.5 C 131.067,34.6808 131.901,36.3474 132,38.5C 132.333,38.1667 132.667,37.8333 133,37.5C 133.5,50.1623 133.667,62.8289 133.5,75.5C 128.797,73.7281 124.63,71.0615 121,67.5C 120.601,67.7284 120.435,68.0618 120.5,68.5C 119.833,67.8333 119.167,67.1667 118.5,66.5C 118.167,65.1667 117.833,65.1667 117.5,66.5C 112.833,70.1667 108.167,73.8333 103.5,77.5C 102.395,75.7 103.061,74.5334 105.5,74C 103.254,72.7432 101.921,70.9099 101.5,68.5C 98.3463,69.0946 95.3463,69.0946 92.5,68.5C 103.546,60.8161 115.88,56.4828 129.5,55.5C 129.5,54.1667 129.5,52.8333 129.5,51.5C 124.768,51.3776 120.102,51.8776 115.5,53C 77.0648,65.2647 55.7315,91.4314 51.5,131.5C 51.6567,130.127 51.49,128.793 51,127.5C 48.3424,128.378 45.8424,128.044 43.5,126.5C 45.1667,126.5 46.8333,126.5 48.5,126.5C 48.5775,122.123 49.0775,117.79 50,113.5C 61.8311,73.6792 88.3311,51.3458 129.5,46.5C 129.5,45.1667 129.5,43.8333 129.5,42.5C 97.2746,45.2708 72.6079,60.2708 55.5,87.5C 55.3781,83.1617 55.0447,82.8284 54.5,86.5C 53.5,86.5 52.5,86.5 51.5,86.5C 69.0479,57.0424 95.0479,40.7091 129.5,37.5C 129.5,36.1667 129.5,34.8333 129.5,33.5 Z"/></g>
<g><path style="opacity:1" fill="#22242a" d="M 139.5,20.5 C 142.482,24.028 143.149,28.028 141.5,32.5C 142.694,33.7992 143.694,35.1325 144.5,36.5C 154.51,38.4085 164.51,40.9085 174.5,44C 205.137,56.4449 224.804,78.6116 233.5,110.5C 232.038,111.471 230.705,111.138 229.5,109.5C 215.036,69.7148 186.702,47.3815 144.5,42.5C 144.5,43.8333 144.5,45.1667 144.5,46.5C 148.49,46.9987 152.49,47.4987 156.5,48C 197.552,58.5471 221.218,84.7138 227.5,126.5C 228.833,126.5 230.167,126.5 231.5,126.5C 229.482,127.047 227.649,128.047 226,129.5C 225.764,127.881 224.931,126.881 223.5,126.5C 222.796,121.016 221.462,115.683 219.5,110.5C 219,110.167 218.5,109.833 218,109.5C 216.357,110.315 214.857,111.315 213.5,112.5C 213.657,111.127 213.49,109.793 213,108.5C 210.003,105.898 208.836,102.898 209.5,99.5C 211.063,101.617 212.396,103.95 213.5,106.5C 216.144,105.259 216.977,103.259 216,100.5C 201.204,71.171 177.371,54.8376 144.5,51.5C 144.5,52.8333 144.5,54.1667 144.5,55.5C 149.684,56.1934 154.684,57.1934 159.5,58.5C 157.076,58.1924 154.743,58.5258 152.5,59.5C 153.167,60.1667 153.833,60.8333 154.5,61.5C 151.032,63.3241 147.365,64.3241 143.5,64.5C 141.225,60.1211 139.892,54.7877 139.5,48.5C 139.5,39.1667 139.5,29.8333 139.5,20.5 Z"/></g>
<g><path style="opacity:1" fill="#15181f" d="M -0.5,38.5 C 4.87816,41.3649 9.87816,44.8649 14.5,49C 19.6931,50.2613 24.6931,52.0946 29.5,54.5C 33.1073,55.4892 36.774,55.8226 40.5,55.5C 40.4802,57.143 41.1468,58.4763 42.5,59.5C 46.5039,61.2583 50.5039,62.925 54.5,64.5C 55.6956,64.1543 55.6956,63.6543 54.5,63C 56.728,62.1799 58.728,62.5132 60.5,64C 58.0614,64.5334 57.3948,65.7 58.5,67.5C 53.0728,74.9195 48.0728,82.5862 43.5,90.5C 40.4281,90.8174 37.4281,90.4841 34.5,89.5C 34.1667,88.8333 33.8333,88.1667 33.5,87.5C 26.4895,86.7328 19.4895,85.8994 12.5,85C 11.8333,83.6667 10.8333,82.6667 9.5,82C 6.18323,81.5017 2.8499,81.335 -0.5,81.5C -0.5,67.1667 -0.5,52.8333 -0.5,38.5 Z"/></g>
<g><path style="opacity:1" fill="#f6f6f7" d="M 117.5,66.5 C 117.832,111.67 117.499,156.67 116.5,201.5C 111.273,197.63 106.106,193.63 101,189.5C 100.333,152.833 100.333,116.167 101,79.5C 101.708,78.6195 102.542,77.9528 103.5,77.5C 108.167,73.8333 112.833,70.1667 117.5,66.5 Z"/></g>
<g><path style="opacity:1" fill="#1b1d24" d="M 139.5,48.5 C 139.892,54.7877 141.225,60.1211 143.5,64.5C 147.365,64.3241 151.032,63.3241 154.5,61.5C 153.833,60.8333 153.167,60.1667 152.5,59.5C 154.743,58.5258 157.076,58.1924 159.5,58.5C 181.835,64.8435 198.502,78.1768 209.5,98.5C 207.958,99.3007 206.292,99.634 204.5,99.5C 204.969,102.393 203.969,104.393 201.5,105.5C 201.804,104.85 202.137,104.183 202.5,103.5C 198.636,94.4695 192.469,87.4695 184,82.5C 183.018,85.7747 183.851,88.4414 186.5,90.5C 182.617,90.8627 178.617,90.8627 174.5,90.5C 174.828,101.679 174.495,112.679 173.5,123.5C 173.832,112.147 173.499,100.814 172.5,89.5C 164.118,82.4504 155.452,75.7838 146.5,69.5C 144.456,71.2194 142.456,72.8861 140.5,74.5C 139.507,66.0161 139.174,57.3494 139.5,48.5 Z"/></g>
<g><path style="opacity:1" fill="#11151c" d="M 270.5,69.5 C 270.5,89.8333 270.5,110.167 270.5,130.5C 268.084,127.898 265.584,127.898 263,130.5C 262.598,129.128 262.098,127.795 261.5,126.5C 258.894,125.348 256.227,125.182 253.5,126C 250.61,129.421 248.944,133.087 248.5,137C 242.984,137.817 237.65,137.651 232.5,136.5C 236.514,136.666 240.514,136.499 244.5,136C 246.679,135.558 247.345,134.558 246.5,133C 238.946,131.568 231.279,131.068 223.5,131.5C 223.5,129.833 223.5,128.167 223.5,126.5C 224.931,126.881 225.764,127.881 226,129.5C 227.649,128.047 229.482,127.047 231.5,126.5C 231.377,120.762 230.71,115.096 229.5,109.5C 230.705,111.138 232.038,111.471 233.5,110.5C 233.81,111.738 234.31,111.738 235,110.5C 235.85,108.99 236.683,107.49 237.5,106C 234.983,98.2769 231.983,90.7769 228.5,83.5C 231.692,81.089 235.359,79.4223 239.5,78.5C 245.606,77.6323 251.606,76.299 257.5,74.5C 260.576,73.589 262.909,71.7557 264.5,69C 266.598,68.3224 268.598,68.4891 270.5,69.5 Z"/></g>
<g><path style="opacity:1" fill="#10151c" d="M -0.5,81.5 C 2.8499,81.335 6.18323,81.5017 9.5,82C 10.8333,82.6667 11.8333,83.6667 12.5,85C 19.4895,85.8994 26.4895,86.7328 33.5,87.5C 33.8333,88.1667 34.1667,88.8333 34.5,89.5C 37.4281,90.4841 40.4281,90.8174 43.5,90.5C 41.5544,95.3948 39.8877,100.395 38.5,105.5C 38.3073,107.688 39.1406,109.355 41,110.5C 43.8183,102.215 47.3183,94.2153 51.5,86.5C 52.5,86.5 53.5,86.5 54.5,86.5C 55.0447,82.8284 55.3781,83.1617 55.5,87.5C 52.4035,94.0296 49.5701,100.696 47,107.5C 44.8673,113.663 43.7006,119.996 43.5,126.5C 45.8424,128.044 48.3424,128.378 51,127.5C 51.49,128.793 51.6567,130.127 51.5,131.5C 44.4921,131.334 37.4921,131.5 30.5,132C 27.2942,132.927 26.9608,134.093 29.5,135.5C 28.4168,135.539 27.4168,135.873 26.5,136.5C 26.277,135.033 25.9437,133.533 25.5,132C 28.928,129.749 32.5946,128.082 36.5,127C 33.8992,124.456 32.8992,121.29 33.5,117.5C 30.0921,116.828 27.4255,117.828 25.5,120.5C 20.8804,121.493 16.2137,121.827 11.5,121.5C 11.5,122.833 11.5,124.167 11.5,125.5C 7.5,125.5 3.5,125.5 -0.5,125.5C -0.5,110.833 -0.5,96.1667 -0.5,81.5 Z"/></g>
<g><path style="opacity:1" fill="#e5e7e8" d="M 201.5,105.5 C 200.504,105.414 199.671,105.748 199,106.5C 196.02,100.191 191.854,94.8578 186.5,90.5C 183.851,88.4414 183.018,85.7747 184,82.5C 192.469,87.4695 198.636,94.4695 202.5,103.5C 202.137,104.183 201.804,104.85 201.5,105.5 Z"/></g>
<g><path style="opacity:1" fill="#12161d" d="M 140.5,87.5 C 145.214,91.2791 150.047,94.9458 155,98.5C 155.667,105.5 155.667,112.5 155,119.5C 149.96,124.044 144.794,128.378 139.5,132.5C 139.171,117.324 139.504,102.324 140.5,87.5 Z"/></g>
<g><path style="opacity:1" fill="#a1a2a4" d="M 140.5,87.5 C 139.504,102.324 139.171,117.324 139.5,132.5C 138.174,117.328 138.174,101.995 139.5,86.5C 140.107,86.6236 140.44,86.9569 140.5,87.5 Z"/></g>
<g><path style="opacity:1" fill="#eceded" d="M 223.5,126.5 C 223.5,128.167 223.5,129.833 223.5,131.5C 231.279,131.068 238.946,131.568 246.5,133C 247.345,134.558 246.679,135.558 244.5,136C 240.514,136.499 236.514,136.666 232.5,136.5C 229.5,136.5 226.5,136.5 223.5,136.5C 223.5,137.5 223.5,138.5 223.5,139.5C 222.532,141.607 222.198,143.941 222.5,146.5C 220.833,146.5 219.167,146.5 217.5,146.5C 218.499,138.189 218.665,129.856 218,121.5C 217.784,119.616 217.117,117.949 216,116.5C 207.588,122.623 199.088,128.623 190.5,134.5C 199.796,140.82 209.13,147.154 218.5,153.5C 220.092,158.076 218.759,159.242 214.5,157C 206.481,150.993 198.148,145.493 189.5,140.5C 186.541,138.559 183.541,136.559 180.5,134.5C 192.045,127.901 203.045,120.567 213.5,112.5C 214.857,111.315 216.357,110.315 218,109.5C 218.5,109.833 219,110.167 219.5,110.5C 221.462,115.683 222.796,121.016 223.5,126.5 Z"/></g>
<g><path style="opacity:1" fill="#161920" d="M 58.5,117.5 C 67.4882,122.662 76.1548,128.328 84.5,134.5C 76.4205,140.29 68.2539,145.957 60,151.5C 55.9041,140.393 55.4041,129.06 58.5,117.5 Z"/></g>
<g><path style="opacity:1" fill="#c0c3c5" d="M 118.5,66.5 C 118.667,112.168 118.5,157.835 118,203.5C 117.283,202.956 116.783,202.289 116.5,201.5C 117.499,156.67 117.832,111.67 117.5,66.5C 117.833,65.1667 118.167,65.1667 118.5,66.5 Z"/></g>
<g><path style="opacity:1" fill="#11151c" d="M 186.5,90.5 C 191.854,94.8578 196.02,100.191 199,106.5C 199.671,105.748 200.504,105.414 201.5,105.5C 203.969,104.393 204.969,102.393 204.5,99.5C 206.292,99.634 207.958,99.3007 209.5,98.5C 209.5,98.8333 209.5,99.1667 209.5,99.5C 208.836,102.898 210.003,105.898 213,108.5C 213.49,109.793 213.657,111.127 213.5,112.5C 203.045,120.567 192.045,127.901 180.5,134.5C 183.541,136.559 186.541,138.559 189.5,140.5C 189.5,142.167 189.5,143.833 189.5,145.5C 187.517,145.157 186.183,145.824 185.5,147.5C 183.656,148.204 183.156,149.537 184,151.5C 188.92,154.71 193.754,158.043 198.5,161.5C 194.934,168.561 190.101,174.561 184,179.5C 183.202,181.259 183.369,182.926 184.5,184.5C 189.146,181.186 193.479,177.519 197.5,173.5C 198.496,173.586 199.329,173.252 200,172.5C 202,174.5 202,176.5 200,178.5C 199,178.833 198,179.167 197,179.5C 195.053,185.115 191.22,188.448 185.5,189.5C 184.833,191.167 184.167,192.833 183.5,194.5C 182.448,194.351 181.448,194.517 180.5,195C 181.641,195.741 181.641,196.575 180.5,197.5C 175.382,199.373 170.382,201.54 165.5,204C 166.888,204.889 166.722,205.389 165,205.5C 163.049,205.112 161.549,204.112 160.5,202.5C 163.374,199.126 166.707,196.292 170.5,194C 169.944,193.617 169.611,193.117 169.5,192.5C 170.458,191.038 171.624,189.705 173,188.5C 173.667,176.5 173.667,164.5 173,152.5C 167.035,148.367 161.535,143.7 156.5,138.5C 162.509,133.821 168.175,128.821 173.5,123.5C 174.495,112.679 174.828,101.679 174.5,90.5C 178.617,90.8627 182.617,90.8627 186.5,90.5 Z"/></g>
<g><path style="opacity:1" fill="#e3e4e5" d="M 192.5,112.5 C 193.5,112.5 194.5,112.5 195.5,112.5C 195.714,114.144 195.38,115.644 194.5,117C 191.029,119.072 187.362,120.572 183.5,121.5C 183.238,120.022 183.571,118.689 184.5,117.5C 187.231,115.808 189.898,114.142 192.5,112.5 Z"/></g>
<g><path style="opacity:1" fill="#e7e8ea" d="M 185.5,97.5 C 188.863,99.3391 191.196,102.172 192.5,106C 191.828,108.39 190.495,108.89 188.5,107.5C 186.957,104.914 185.291,102.414 183.5,100C 184.381,99.2917 185.047,98.4584 185.5,97.5 Z"/></g>
<g><path style="opacity:1" fill="#0c1118" d="M 29.5,135.5 C 37.111,136.434 44.7777,136.767 52.5,136.5C 52.5,138.833 52.5,141.167 52.5,143.5C 52.3178,148.794 51.8178,148.794 51,143.5C 50.7679,144.737 50.2679,145.737 49.5,146.5C 48.6993,144.958 48.366,143.292 48.5,141.5C 46.2437,138.966 43.577,138.3 40.5,139.5C 40.5,141.167 40.5,142.833 40.5,144.5C 39.1779,144.67 38.0113,144.337 37,143.5C 36.5814,144.672 35.9147,145.672 35,146.5C 34.7618,150.222 34.2618,153.889 33.5,157.5C 34.2421,158.287 35.0754,158.953 36,159.5C 36.1816,162.226 36.6816,164.893 37.5,167.5C 38.4168,166.873 39.4168,166.539 40.5,166.5C 40.5,166.833 40.5,167.167 40.5,167.5C 40.6068,169.379 40.1068,169.712 39,168.5C 38.3333,170.833 38.3333,173.167 39,175.5C 41.3501,178.035 42.8501,181.035 43.5,184.5C 44.5195,185.687 45.6861,186.687 47,187.5C 50.8942,195.11 55.3942,201.777 60.5,207.5C 61.6888,208.429 63.0222,208.762 64.5,208.5C 64.5,209.5 64.5,210.5 64.5,211.5C 66.1033,211.312 67.4366,211.812 68.5,213C 67.8333,213.333 67.1667,213.667 66.5,214C 71.6081,217.263 76.6081,220.763 81.5,224.5C 90.0744,228.704 98.4078,232.537 106.5,236C 112.596,236.751 118.596,237.918 124.5,239.5C 127.197,237.165 129.697,237.165 132,239.5C 132.333,237.833 132.667,236.167 133,234.5C 133.174,239.351 133.674,244.018 134.5,248.5C 135.858,253.805 137.192,253.805 138.5,248.5C 139.167,214.5 139.833,180.5 140.5,146.5C 145.435,150.258 150.268,154.258 155,158.5C 155.5,173.496 155.667,188.496 155.5,203.5C 154.167,206.167 152.833,208.833 151.5,211.5C 149.473,211.338 147.473,211.505 145.5,212C 144.62,213.356 144.286,214.856 144.5,216.5C 149.747,217.985 149.413,218.985 143.5,219.5C 143.216,221.415 143.549,223.081 144.5,224.5C 146.607,225.468 148.941,225.802 151.5,225.5C 151.5,226.833 151.5,228.167 151.5,229.5C 149.236,230.219 146.903,230.552 144.5,230.5C 144.5,231.833 144.5,233.167 144.5,234.5C 196.4,228.27 228.067,199.603 239.5,148.5C 239.435,148.062 239.601,147.728 240,147.5C 240.333,148.167 240.667,148.833 241,149.5C 241.493,145.489 239.659,143.489 235.5,143.5C 235.328,139.029 234.494,138.696 233,142.5C 232.617,141.944 232.117,141.611 231.5,141.5C 230.432,140.566 229.099,140.232 227.5,140.5C 226.178,140.33 225.011,140.663 224,141.5C 223.536,140.906 223.369,140.239 223.5,139.5C 223.5,138.5 223.5,137.5 223.5,136.5C 226.5,136.5 229.5,136.5 232.5,136.5C 237.65,137.651 242.984,137.817 248.5,137C 248.944,133.087 250.61,129.421 253.5,126C 256.227,125.182 258.894,125.348 261.5,126.5C 262.098,127.795 262.598,129.128 263,130.5C 265.584,127.898 268.084,127.898 270.5,130.5C 270.5,177.167 270.5,223.833 270.5,270.5C 180.167,270.5 89.8333,270.5 -0.5,270.5C -0.5,222.167 -0.5,173.833 -0.5,125.5C 3.5,125.5 7.5,125.5 11.5,125.5C 11.5,124.167 11.5,122.833 11.5,121.5C 16.2137,121.827 20.8804,121.493 25.5,120.5C 27.4255,117.828 30.0921,116.828 33.5,117.5C 32.8992,121.29 33.8992,124.456 36.5,127C 32.5946,128.082 28.928,129.749 25.5,132C 25.9437,133.533 26.277,135.033 26.5,136.5C 27.4168,135.873 28.4168,135.539 29.5,135.5 Z"/></g>
<g><path style="opacity:1" fill="#eff1f2" d="M 64.5,130.5 C 69.663,130.107 71.3297,132.273 69.5,137C 63.741,138.139 62.0744,135.972 64.5,130.5 Z"/></g>
<g><path style="opacity:1" fill="#13171d" d="M 118.5,66.5 C 119.167,67.1667 119.833,67.8333 120.5,68.5C 124.124,73.9582 128.624,78.6248 134,82.5C 134.833,95.5128 134.666,108.513 133.5,121.5C 129.648,125.186 125.648,128.686 121.5,132C 125.667,135.5 129.833,139 134,142.5C 134.5,157.83 134.667,173.163 134.5,188.5C 134.5,208.5 134.5,228.5 134.5,248.5C 133.674,244.018 133.174,239.351 133,234.5C 132.667,236.167 132.333,237.833 132,239.5C 129.697,237.165 127.197,237.165 124.5,239.5C 118.596,237.918 112.596,236.751 106.5,236C 98.4078,232.537 90.0744,228.704 81.5,224.5C 76.6081,220.763 71.6081,217.263 66.5,214C 67.1667,213.667 67.8333,213.333 68.5,213C 67.4366,211.812 66.1033,211.312 64.5,211.5C 64.5,210.5 64.5,209.5 64.5,208.5C 63.0222,208.762 61.6888,208.429 60.5,207.5C 55.3942,201.777 50.8942,195.11 47,187.5C 45.6861,186.687 44.5195,185.687 43.5,184.5C 42.8501,181.035 41.3501,178.035 39,175.5C 38.3333,173.167 38.3333,170.833 39,168.5C 40.1068,169.712 40.6068,169.379 40.5,167.5C 55.2156,202.703 81.2156,224.869 118.5,234C 122.152,234.499 125.818,234.665 129.5,234.5C 129.5,233.167 129.5,231.833 129.5,230.5C 80.5413,222.876 50.5413,194.876 39.5,146.5C 37.2569,147.412 36.2569,149.078 36.5,151.5C 37.5841,156.596 38.9174,161.596 40.5,166.5C 39.4168,166.539 38.4168,166.873 37.5,167.5C 36.6816,164.893 36.1816,162.226 36,159.5C 35.0754,158.953 34.2421,158.287 33.5,157.5C 34.2618,153.889 34.7618,150.222 35,146.5C 35.9147,145.672 36.5814,144.672 37,143.5C 38.0113,144.337 39.1779,144.67 40.5,144.5C 40.5,142.833 40.5,141.167 40.5,139.5C 43.577,138.3 46.2437,138.966 48.5,141.5C 46.8333,141.5 45.1667,141.5 43.5,141.5C 52.146,190.147 80.8127,218.147 129.5,225.5C 129.5,224.167 129.5,222.833 129.5,221.5C 85.4417,215.11 58.775,190.11 49.5,146.5C 50.2679,145.737 50.7679,144.737 51,143.5C 51.8178,148.794 52.3178,148.794 52.5,143.5C 53.6604,148.793 55.1604,154.126 57,159.5C 69.364,150.971 81.864,142.637 94.5,134.5C 83.6637,127.916 72.997,121.083 62.5,114C 61.4258,113.261 60.7591,112.261 60.5,111C 66.2242,93.0253 76.8908,78.8586 92.5,68.5C 95.3463,69.0946 98.3463,69.0946 101.5,68.5C 101.921,70.9099 103.254,72.7432 105.5,74C 103.061,74.5334 102.395,75.7 103.5,77.5C 102.542,77.9528 101.708,78.6195 101,79.5C 100.333,116.167 100.333,152.833 101,189.5C 106.106,193.63 111.273,197.63 116.5,201.5C 116.783,202.289 117.283,202.956 118,203.5C 118.5,157.835 118.667,112.168 118.5,66.5 Z"/></g>
<g><path style="opacity:1" fill="#edeff0" d="M 87.5,97.5 C 88.8118,98.1451 89.8118,99.1451 90.5,100.5C 87.8346,104.331 85.8346,108.498 84.5,113C 85.6875,114.944 87.3542,116.444 89.5,117.5C 90.4287,118.689 90.762,120.022 90.5,121.5C 85.5095,120.518 81.8429,117.851 79.5,113.5C 81.115,107.603 83.7817,102.27 87.5,97.5 Z"/></g>
<g><path style="opacity:1" fill="#ececed" d="M 89.5,82.5 C 90.6225,84.2884 90.7891,86.2884 90,88.5C 81.9258,94.959 76.5925,103.292 74,113.5C 72.4443,112.48 71.2776,111.147 70.5,109.5C 74.1372,98.5411 80.4706,89.5411 89.5,82.5 Z"/></g>
<g><path style="opacity:1" fill="#e8eaeb" d="M 88.5,147.5 C 89.6491,147.791 90.3158,148.624 90.5,150C 90.1667,150.833 89.8333,151.667 89.5,152.5C 84.6877,155.165 80.3544,158.332 76.5,162C 79.7009,168.572 84.2009,174.072 90,178.5C 90.49,179.793 90.6567,181.127 90.5,182.5C 85.4238,180.947 81.2571,177.947 78,173.5C 74.8589,169.387 72.3589,164.887 70.5,160C 76.3618,155.575 82.3618,151.408 88.5,147.5 Z"/></g>
<g><path style="opacity:1" fill="#e7e9ea" d="M 185.5,147.5 C 190.326,150.804 195.326,153.97 200.5,157C 201.99,157.745 202.99,158.912 203.5,160.5C 201.748,165 199.748,169.334 197.5,173.5C 193.479,177.519 189.146,181.186 184.5,184.5C 183.369,182.926 183.202,181.259 184,179.5C 190.101,174.561 194.934,168.561 198.5,161.5C 193.754,158.043 188.92,154.71 184,151.5C 183.156,149.537 183.656,148.204 185.5,147.5 Z"/></g>
<g><path style="opacity:1" fill="#e8eaec" d="M 84.5,160.5 C 86.9099,160.921 88.7432,162.254 90,164.5C 90.7203,166.112 90.5536,167.612 89.5,169C 88.8333,169.667 88.1667,169.667 87.5,169C 85.5951,167.185 83.9284,165.185 82.5,163C 83.3805,162.292 84.0472,161.458 84.5,160.5 Z"/></g>
<g><path style="opacity:1" fill="#dadcdc" d="M 187.5,160.5 C 191.549,161.157 192.382,163.157 190,166.5C 188.316,168.351 186.483,170.018 184.5,171.5C 183.369,169.926 183.202,168.259 184,166.5C 185.421,164.595 186.588,162.595 187.5,160.5 Z"/></g>
<g><path style="opacity:1" fill="#a4a6a8" d="M 140.5,146.5 C 139.833,180.5 139.167,214.5 138.5,248.5C 138.5,228.167 138.5,207.833 138.5,187.5C 138.167,173.484 138.501,159.484 139.5,145.5C 140.107,145.624 140.44,145.957 140.5,146.5 Z"/></g>
<g><path style="opacity:1" fill="#e0e2e2" d="M 239.5,148.5 C 228.067,199.603 196.4,228.27 144.5,234.5C 144.5,233.167 144.5,231.833 144.5,230.5C 146.903,230.552 149.236,230.219 151.5,229.5C 197.331,220.003 225.331,192.336 235.5,146.5C 236.622,147.63 237.956,148.297 239.5,148.5 Z"/></g>
<g><path style="opacity:1" fill="#e3e6e7" d="M 61.5,161.5 C 62.3764,161.369 63.0431,161.702 63.5,162.5C 75.9655,191.619 97.9655,208.285 129.5,212.5C 129.5,213.833 129.5,215.167 129.5,216.5C 96.4531,212.63 73.1198,195.463 59.5,165C 59.9783,163.697 60.645,162.531 61.5,161.5 Z"/></g>
<g><path style="opacity:1" fill="#e4e6e6" d="M 144.5,216.5 C 144.286,214.856 144.62,213.356 145.5,212C 147.473,211.505 149.473,211.338 151.5,211.5C 180.231,204.934 200.731,188.267 213,161.5C 214.464,162.459 215.297,163.792 215.5,165.5C 201.546,195.981 177.88,212.981 144.5,216.5 Z"/></g>
<g><path style="opacity:1" fill="#171a20" d="M 239.5,148.5 C 237.956,148.297 236.622,147.63 235.5,146.5C 225.331,192.336 197.331,220.003 151.5,229.5C 151.5,228.167 151.5,226.833 151.5,225.5C 196.964,215.37 223.631,187.37 231.5,141.5C 232.117,141.611 232.617,141.944 233,142.5C 234.494,138.696 235.328,139.029 235.5,143.5C 239.659,143.489 241.493,145.489 241,149.5C 240.667,148.833 240.333,148.167 240,147.5C 239.601,147.728 239.435,148.062 239.5,148.5 Z"/></g>
<g><path style="opacity:1" fill="#171a20" d="M 223.5,139.5 C 223.369,140.239 223.536,140.906 224,141.5C 225.011,140.663 226.178,140.33 227.5,140.5C 219.25,187.416 191.584,214.416 144.5,221.5C 144.5,222.5 144.5,223.5 144.5,224.5C 143.549,223.081 143.216,221.415 143.5,219.5C 149.413,218.985 149.747,217.985 144.5,216.5C 177.88,212.981 201.546,195.981 215.5,165.5C 215.297,163.792 214.464,162.459 213,161.5C 200.731,188.267 180.231,204.934 151.5,211.5C 152.833,208.833 154.167,206.167 155.5,203.5C 160.167,199.833 164.833,196.167 169.5,192.5C 169.611,193.117 169.944,193.617 170.5,194C 166.707,196.292 163.374,199.126 160.5,202.5C 161.549,204.112 163.049,205.112 165,205.5C 166.722,205.389 166.888,204.889 165.5,204C 170.382,201.54 175.382,199.373 180.5,197.5C 181.641,196.575 181.641,195.741 180.5,195C 181.448,194.517 182.448,194.351 183.5,194.5C 184.167,192.833 184.833,191.167 185.5,189.5C 191.22,188.448 195.053,185.115 197,179.5C 198,179.167 199,178.833 200,178.5C 202,176.5 202,174.5 200,172.5C 199.329,173.252 198.496,173.586 197.5,173.5C 199.748,169.334 201.748,165 203.5,160.5C 202.99,158.912 201.99,157.745 200.5,157C 195.326,153.97 190.326,150.804 185.5,147.5C 186.183,145.824 187.517,145.157 189.5,145.5C 189.5,143.833 189.5,142.167 189.5,140.5C 198.148,145.493 206.481,150.993 214.5,157C 218.759,159.242 220.092,158.076 218.5,153.5C 209.13,147.154 199.796,140.82 190.5,134.5C 199.088,128.623 207.588,122.623 216,116.5C 217.117,117.949 217.784,119.616 218,121.5C 218.665,129.856 218.499,138.189 217.5,146.5C 219.167,146.5 220.833,146.5 222.5,146.5C 222.198,143.941 222.532,141.607 223.5,139.5 Z"/></g>
<g><path style="opacity:1" fill="#eef0f1" d="M 206.5,130.5 C 212.016,130.473 213.349,132.64 210.5,137C 204.738,137.418 203.404,135.251 206.5,130.5 Z"/></g>
<g><path style="opacity:1" fill="#dcdfe0" d="M 40.5,167.5 C 40.5,167.167 40.5,166.833 40.5,166.5C 38.9174,161.596 37.5841,156.596 36.5,151.5C 36.2569,149.078 37.2569,147.412 39.5,146.5C 50.5413,194.876 80.5413,222.876 129.5,230.5C 129.5,231.833 129.5,233.167 129.5,234.5C 125.818,234.665 122.152,234.499 118.5,234C 81.2156,224.869 55.2156,202.703 40.5,167.5 Z"/></g>
<g><path style="opacity:1" fill="#e9e9e9" d="M 138.5,187.5 C 138.5,207.833 138.5,228.167 138.5,248.5C 137.192,253.805 135.858,253.805 134.5,248.5C 134.5,228.5 134.5,208.5 134.5,188.5C 135.708,187.766 137.041,187.433 138.5,187.5 Z"/></g>
<g><path style="opacity:1" fill="#dfe1e3" d="M 48.5,141.5 C 48.366,143.292 48.6993,144.958 49.5,146.5C 58.775,190.11 85.4417,215.11 129.5,221.5C 129.5,222.833 129.5,224.167 129.5,225.5C 80.8127,218.147 52.146,190.147 43.5,141.5C 45.1667,141.5 46.8333,141.5 48.5,141.5 Z"/></g>
<g><path style="opacity:1" fill="#e0e2e2" d="M 227.5,140.5 C 229.099,140.232 230.432,140.566 231.5,141.5C 223.631,187.37 196.964,215.37 151.5,225.5C 148.941,225.802 146.607,225.468 144.5,224.5C 144.5,223.5 144.5,222.5 144.5,221.5C 191.584,214.416 219.25,187.416 227.5,140.5 Z"/></g>
</svg>
